OpenSim_Sub08_CSBaseline_LCS.mot
version=1
nRows=80
nColumns=11
inDegrees=no
endheader
time	Bot_Shank	2nd_Bot_Shank	2nd_Top_Shank	Top_Shank	Bot_Thigh	Med_Thigh	Top_Thigh	BNOx	BNOy	BNOZ
27.30000000	8440.58171012	8742.63404244	9230.28990569	8994.88642336	9519.24196378	10394.29557753	10825.00670916	213.74567107	-53.38982570	121.02920586
27.31000000	8445.34751880	8743.73896706	9216.06825272	8989.75180192	9488.05385773	10390.70782243	10828.27719586	215.08905946	-53.53319634	119.98273386
27.32000000	8450.50896818	8745.74871733	9202.41560436	8985.77774910	9455.41927150	10387.72761226	10834.06889667	215.95433860	-53.95464408	120.08065742
27.33000000	8455.36049963	8748.72149451	9190.90720777	8982.83990369	9423.81739885	10386.21083598	10842.45941953	216.43779036	-54.58310861	121.01766117
27.34000000	8459.19655451	8752.71549985	9183.11831007	8980.81390450	9395.72743353	10387.01338254	10853.52637240	216.63569661	-55.34752963	122.48842976
27.35000000	8461.31157418	8757.78893459	9180.62415844	8979.57539033	9373.62856933	10390.99114089	10867.34736324	216.64433920	-56.17684686	124.18764783
27.36000000	8461	8764	9185	8979	9360	10399	10884	216.56000000	-57	125.81000000
27.37000000	8457.83134541	8771.33628863	9197.24743451	8979.02758790	9356.59537324	10411.55454458	10903.38521950	216.45885141	-57.75953335	127.11455879
27.38000000	8452.47541212	8779.50295829	9216.07347207	8979.85487083	9362.26615250	10427.80414245	10924.69727404	216.33662799	-58.45240964	128.11794819
27.39000000	8445.87707392	8788.13455810	9239.61147539	8981.74278117	9375.13825516	10446.55685720	10946.95374479	216.16895482	-59.08919620	128.90118006
27.40000000	8438.98120459	8796.86563720	9265.99480718	8984.95225133	9393.33759859	10466.62075242	10969.17221292	215.93145701	-59.68046036	129.54526626
27.41000000	8432.73267792	8805.33074469	9293.35683015	8989.74421369	9414.99010018	10486.80389169	10990.37025958	215.59975965	-60.23676944	130.13121866
27.42000000	8428.07636769	8813.16442971	9319.83090700	8996.37960065	9438.22167729	10505.91433859	11009.56546595	215.14948783	-60.76869078	130.74004911
27.43000000	8425.95714768	8820.00124137	9343.55040044	9005.11934460	9461.15824732	10522.76015673	11025.77541320	214.55626664	-61.28679172	131.45276948
27.44000000	8427.31959420	8825.47583876	9362.64912359	9016.22422710	9481.92611115	10536.14971298	11038.01801616	213.79573193	-61.80163703	132.35036983
27.45000000	8432.71351905	8829.36878941	9375.85858547	9029.75487754	9499.16048321	10545.29386069	11045.75397412	212.85778435	-62.32042371	133.48491395
27.46000000	8441.51574508	8831.89420806	9383.68626720	9045.17720037	9513.00874533	10550.59938692	11049.75966012	211.77471051	-62.84034181	134.82251514
27.47000000	8452.88622752	8833.34636563	9386.96799979	9061.84714456	9523.89785584	10552.69418846	11051.05469503	210.58663353	-63.35673122	136.31339574
27.48000000	8465.98492161	8834.01953304	9386.53961424	9079.12065907	9532.25477303	10552.20616212	11050.65869971	209.33367651	-63.86493185	137.90777815
27.49000000	8479.97178258	8834.20798121	9383.23694158	9096.35369285	9538.50645521	10549.76320469	11049.59129503	208.05596258	-64.36028360	139.55588472
27.50000000	8494.00676567	8834.20598107	9377.89581282	9112.90219487	9543.07986069	10545.99321296	11048.87210185	206.79361485	-64.83812639	141.20793782
27.51000000	8507.24982611	8834.30780354	9371.35205896	9128.12211410	9546.40194777	10541.52408374	11049.52074104	205.58675643	-65.29380012	142.81415982
27.52000000	8518.86091914	8834.80771954	9364.44151101	9141.36939949	9548.89967478	10536.98371382	11052.55683347	204.47551044	-65.72264468	144.32477309
27.53000000	8528	8836	9358	9152	9551	10533	11059	203.50000000	-66.12000000	145.69000000
27.54000000	8534.06140363	8838.11717338	9352.72109219	9159.54916749	9553.05280477	10530.08892283	11069.55672416	202.68881078	-66.48280954	146.87666797
27.55000000	8537.37698380	8841.14479835	9348.72929486	9164.26936538	9555.09966249	10528.31879790	11083.68094017	202.02437872	-66.81443111	147.91802468
27.56000000	8538.51297402	8845.00669111	9346.00685058	9166.59235998	9557.10506957	10527.64602454	11100.51344490	201.47760231	-67.11982605	148.86392284
27.57000000	8538.03560778	8849.62666787	9344.53600189	9166.94991760	9559.03352242	10528.02700211	11119.19503522	201.01938007	-67.40395574	149.76421520
27.58000000	8536.51111856	8854.92854483	9344.29899135	9165.77380454	9560.84951746	10529.41812994	11138.86650803	200.62061049	-67.67178155	150.66875447
27.59000000	8534.50573985	8860.83613821	9345.27806149	9163.49578712	9562.51755110	10531.77580737	11158.66866020	200.25219207	-67.92826483	151.62739338
27.60000000	8532.58570515	8867.27326421	9347.45545488	9160.54763164	9564.00211976	10535.05643375	11177.74228860	199.88502331	-68.17836695	152.68998466
27.61000000	8531.31724795	8874.16373904	9350.81341406	9157.36110443	9565.26771986	10539.21640842	11195.22819011	199.49000271	-68.42704927	153.90638104
27.62000000	8531.26660173	8881.43137890	9355.33418159	9154.36797177	9566.27884780	10544.21213073	11210.26716162	199.03802877	-68.67927317	155.32643524
27.63000000	8533	8889	9361	9152	9567	10550	11222	198.50000000	-68.94000000	157.00000000
27.64000000	8536.88457000	8896.76567583	9367.73086589	9150.58233576	9567.41296142	10556.46369384	11229.81644272	197.85921099	-69.21157498	158.93210154
27.65000000	8542.49101405	8904.51350900	9375.19779200	9150.01364708	9567.56867119	10563.19600286	11234.10198961	197.14854079	-69.48587873	160.94846014
27.66000000	8549.19092822	8912.00085938	9383.00954510	9150.08598236	9567.53535697	10569.71699591	11235.49108109	196.41326454	-69.75217572	162.82996955
27.67000000	8556.35590858	8918.98508688	9390.77489196	9150.59138997	9567.38124644	10575.54674186	11234.61815759	195.69865737	-69.99973041	164.35752354
27.68000000	8563.35755122	8925.22355138	9398.10259935	9151.32191830	9567.17456727	10580.20530956	11232.11765951	195.04999443	-70.21780728	165.31201589
27.69000000	8569.56758915	8930.47367906	9404.60153285	9152.06965000	9566.98353358	10583.21290606	11228.62395168	194.51253853	-70.39567393	165.47445220
27.70000000	8574.53946647	8934.58088051	9410.01166237	9152.67214020	9566.85837194	10584.27310956	11224.67106245	194.11520060	-70.52676650	164.77424644
27.71000000	8578.36655717	8937.65199999	9414.46251656	9153.10205937	9566.79586148	10583.63436077	11220.49488402	193.83830406	-70.61690733	163.58178785
27.72000000	8581.24205994	8939.84221680	9418.15564749	9153.35705870	9566.78289967	10581.64583706	11216.27618785	193.65318930	-70.67420877	162.34899521
27.73000000	8583.35917345	8941.30671025	9421.29260722	9153.43478941	9566.80638401	10578.65671580	11212.19574535	193.53119667	-70.70678318	161.52778728
27.74000000	8584.91109640	8942.20065965	9424.07494782	9153.33290269	9566.85321198	10575.01617437	11208.43432798	193.44366656	-70.72274292	161.57008284
27.75000000	8586.09102747	8942.67924431	9426.70422135	9153.04904975	9566.91028108	10571.07339014	11205.17270716	193.36193931	-70.73020035	162.92780067
27.76000000	8587.09216536	8942.89764354	9429.38197988	9152.58088179	9566.96448878	10567.17754051	11202.59165433	193.25735531	-70.73726782	166.05285955
27.77000000	8588.10766546	8943.01100997	9432.30971954	9151.92606714	9567.00273687	10563.67773269	11200.87189391	193.10126059	-70.75205640	171.39691673
27.78000000	8589.27324065	8943.13909221	9435.61472775	9151.10500687	9567.01761225	10560.83000601	11200.13176897	192.87252194	-70.78095022	179.06459717
27.79000000	8590.55392115	8943.29644073	9439.20379078	9150.20564929	9567.01859446	10558.61386108	11200.30426481	192.57235302	-70.82520219	188.12936653
27.80000000	8591.88318059	8943.47815644	9442.94292765	9149.32843114	9567.01828622	10556.95767074	11201.28809694	192.20609910	-70.88511652	197.47404501
27.81000000	8593.19449259	8943.67934025	9446.69815735	9148.57378917	9567.02929025	10555.78980786	11202.98198087	191.77910545	-70.96099741	205.98145279
27.82000000	8594.42133078	8943.89509308	9450.33549889	9148.04216013	9567.06420927	10555.03864530	11205.28463212	191.29671734	-71.05314908	212.53441006
27.83000000	8595.49716879	8944.12051587	9453.72097128	9147.83398076	9567.13564600	10554.63255590	11208.09476619	190.76428003	-71.16187571	216.01573701
27.84000000	8596.35548026	8944.35070952	9456.72059352	9148.04968781	9567.25620316	10554.49991254	11211.31109860	190.18713878	-71.28748153	215.30825383
27.85000000	8596.92973879	8944.58077495	9459.20038463	9148.78971804	9567.43848347	10554.56908807	11214.83234486	189.57063888	-71.43027074	209.29478071
27.86000000	8597.15341803	8944.80581310	9461.02636360	9150.15450818	9567.69508966	10554.76845534	11218.55722047	188.92012557	-71.59054755	196.85813784
27.87000000	8596.96000176	8945.02092323	9462.06457040	9152.24441252	9568.03861349	10555.02638645	11222.38441805	188.24094272	-71.76861524	176.88164966
27.88000000	8596.29645359	8945.21903839	9462.20886191	9155.05036226	9568.46711055	10555.27023595	11226.18223524	187.53655988	-71.96354820	148.91779216
27.89000000	8595.14979062	8945.38665485	9461.43574918	9158.23815278	9568.93544421	10555.42433488	11229.72865515	186.80487743	-72.17076941	114.50733412
27.90000000	8593.51443522	8945.50907885	9459.73702474	9161.41346684	9569.39049224	10555.41245530	11232.78496314	186.04276607	-72.38502672	75.55864902
27.91000000	8591.38480975	8945.57161661	9457.10448110	9164.18198719	9569.77913242	10555.15836928	11235.11244458	185.24709651	-72.60106801	33.98011037
27.92000000	8588.75533658	8945.55957436	9453.52991080	9166.14939660	9570.04824253	10554.58584886	11236.47238481	184.41473944	-72.81364113	-8.31990834
27.93000000	8585.62043809	8945.45825834	9449.00510636	9166.92137784	9570.14470034	10553.61866610	11236.62606919	183.54256557	-73.01749396	-49.43303361
27.94000000	8581.97453663	8945.25297476	9443.52186031	9166.10361365	9570.01538362	10552.18059306	11235.33478310	182.62744562	-73.20737437	-87.45089195
27.95000000	8577.81205458	8944.92902986	9437.07196518	9163.30178682	9569.60717016	10550.19540180	11232.35981187	181.66625028	-73.37803020	-120.46510986
27.96000000	8573.12741431	8944.47172987	9429.64721349	9158.12158009	9568.86693773	10547.58686437	11227.46244087	180.65585027	-73.52420934	-146.56731384
27.97000000	8567.91510440	8943.86583494	9421.23970853	9150.16985087	9567.74218391	10544.27912518	11220.40434408	179.59309971	-73.64065292	-163.85443546
27.98000000	8562.18365344	8942.98033658	9411.90743349	9139.30248087	9566.31180210	10540.27526927	11211.02958205	178.47134098	-73.72067443	-171.54808158
27.99000000	8555.97291501	8941.42593118	9401.85535837	9125.93095785	9564.94784728	10535.75450855	11199.36603069	177.27608117	-73.75440216	-171.37915814
28	8549.32698122	8938.77836610	9391.30834146	9110.54194674	9564.06204104	10530.91988609	11185.46643735	175.99176724	-73.73153341	-165.41809566
28.01000000	8542.28994415	8934.61338872	9380.49124102	9093.62211248	9564.06610502	10525.97444495	11169.38354936	174.60284613	-73.64176547	-155.73532471
28.02000000	8534.90589589	8928.50674641	9369.62891533	9075.65811998	9565.37176083	10521.12122817	11151.17011406	173.09376480	-73.47479564	-144.40127581
28.03000000	8527.21893961	8920.03436308	9358.94619646	9057.13662797	9568.39061978	10516.56325983	11130.87901975	171.44897810	-73.22032337	-133.48598103
28.04000000	8519.28788785	8909.00645383	9348.63312232	9038.53606816	9573.38789904	10512.47835823	11108.75023415	169.66345681	-72.87089958	-124.53069008
28.05000000	8511.21525998	8895.92939810	9338.77634475	9020.31042682	9580.19382558	10508.96944619	11085.57960590	167.76341816	-72.42754790	-117.50544782
28.06000000	8503.11165609	8881.43828539	9329.44340113	9002.90917060	9588.55820337	10506.12559953	11062.26575749	165.78085641	-71.89285849	-112.08980752
28.07000000	8495.08767630	8866.16820522	9320.70182882	8986.78176619	9598.23083637	10504.03589404	11039.70731141	163.74776582	-71.26942147	-107.96332246
28.08000000	8487.25392069	8850.75424708	9312.61916519	8972.37768025	9608.96152857	10502.78940554	11018.80289014	161.69614063	-70.55982698	-104.80554590
28.09000000	8479.72098937	8835.83150050	9305.26294760	8960.14637946	9620.50008393	10502.47520983	11000.45111615	159.65797509	-69.76666514	-102.29603113
